mtllib materials.mtl
v 0.00999999 -0.01 0.00999999
v 0 0 0.00999999
v -0.00999999 0.01 0.00999999
v -0.00999999 -0.009999996 -0.00999999
v 0 1.862645E-09 -0.00999999
v 0.00999999 0.01 -0.00999999
vn -1.192093E-07 -1.748456E-07 1
vn -0.5773506 -0.57735 0.5773503
vn -0.5773504 0.5773501 -0.5773505
vn 0.5773501 -0.5773503 -0.5773506
vn -0.57735 -0.5773506 0.5773503
vn 0.5773504 0.5773499 0.5773507
vn 0.57735 0.5773503 0.5773507
vn -0.57735 0.5773506 -0.5773505
vn 0.5773505 -0.5773498 -0.5773505
vn -1.192093E-07 -1.748456E-07 1
usemtl mat10
f 3//1 2//1 1//1
f 2//2 4//2 1//2
f 6//3 5//3 3//3
f 5//4 6//4 1//4
f 3//5 4//5 2//5
f 3//6 2//6 6//6
f 6//7 2//7 1//7
f 3//8 5//8 4//8
f 4//9 5//9 1//9
f 2//10 3//10 1//10
